<svg width="152" height="152" viewBox="0 0 152 152" fill="none" xmlns="http://www.w3.org/2000/svg">
<path d="M139.721 90.25L131.575 82.1038C132.502 80.2018 132.989 78.1157 133 76C133 73.1816 132.164 70.4265 130.598 68.0831C129.033 65.7397 126.807 63.9133 124.203 62.8347C121.599 61.7562 118.734 61.474 115.97 62.0238C113.206 62.5737 110.667 63.9308 108.674 65.9237C106.681 67.9166 105.324 70.4557 104.774 73.22C104.224 75.9842 104.506 78.8494 105.585 81.4532C106.663 84.0571 108.49 86.2826 110.833 87.8485C113.177 89.4143 115.932 90.25 118.75 90.25C120.867 90.2394 122.955 89.7524 124.858 88.825L133 96.9665V133H104.5V118.75C104.49 109.935 100.984 101.483 94.7502 95.2498C88.5168 89.0164 80.0654 85.5101 71.25 85.5H42.75C33.9346 85.5101 25.4832 89.0164 19.2498 95.2498C13.0164 101.483 9.51006 109.935 9.5 118.75V142.5H142.5V96.9665C142.503 95.7189 142.26 94.483 141.783 93.3302C141.306 92.1774 140.605 91.1305 139.721 90.25ZM19 118.75C19.0075 112.453 21.5122 106.417 25.9645 101.965C30.4169 97.5122 36.4534 95.0076 42.75 95H71.25C77.5466 95.0076 83.5831 97.5122 88.0355 101.965C92.4878 106.417 94.9925 112.453 95 118.75V133H19V118.75Z" fill="#0B1F38"/>
<path d="M57 19C61.6973 19 66.2891 20.3929 70.1948 23.0026C74.1005 25.6123 77.1446 29.3215 78.9422 33.6613C80.7397 38.001 81.2101 42.7763 80.2937 47.3834C79.3773 51.9904 77.1153 56.2223 73.7938 59.5438C70.4723 62.8653 66.2405 65.1273 61.6334 66.0437C57.0264 66.9601 52.251 66.4897 47.9113 64.6921C43.5715 62.8946 39.8623 59.8505 37.2526 55.9448C34.6429 52.0391 33.25 47.4473 33.25 42.75C33.25 36.4511 35.7522 30.4102 40.2062 25.9562C44.6602 21.5022 50.7011 19 57 19ZM57 9.5C50.4238 9.5 43.9952 11.4501 38.5273 15.1036C33.0594 18.7572 28.7976 23.9501 26.281 30.0258C23.7644 36.1014 23.1059 42.7869 24.3889 49.2368C25.6719 55.6866 28.8386 61.6112 33.4887 66.2613C38.1388 70.9114 44.0634 74.0781 50.5133 75.3611C56.9631 76.6441 63.6486 75.9856 69.7242 73.469C75.7999 70.9524 80.9928 66.6906 84.6464 61.2227C88.2999 55.7548 90.25 49.3262 90.25 42.75C90.25 33.9316 86.7469 25.4743 80.5113 19.2387C74.2757 13.0031 65.8185 9.5 57 9.5Z" fill="#0B1F38"/>
</svg>
