<svg width="152" height="152" viewBox="0 0 152 152" fill="none" xmlns="http://www.w3.org/2000/svg">
<path d="M37.2857 87.7116L64.2733 114.714L113.81 65.1776L86.8073 38.19L37.2857 87.7116ZM145.191 50.6464L133.707 39.1552C130.79 40.7489 127.436 41.3551 124.146 40.8828C120.855 40.4105 117.807 38.8853 115.456 36.5354C113.105 34.1856 111.579 31.1375 111.106 27.8476C110.632 24.5577 111.237 21.203 112.83 18.2856L101.346 6.79441C99.8986 5.35939 97.9428 4.55424 95.9045 4.55424C93.8662 4.55424 91.9104 5.35939 90.4629 6.79441L6.78692 90.4704C5.3519 91.9179 4.54675 93.8737 4.54675 95.912C4.54675 97.9503 5.3519 99.9061 6.78692 101.354L18.2781 112.83C21.1964 111.232 24.554 110.623 27.8475 111.095C31.1409 111.567 34.1926 113.094 36.5447 115.447C38.8969 117.8 40.4227 120.852 40.8934 124.146C41.3641 127.439 40.7542 130.797 39.1553 133.714L50.6465 145.19C52.0921 146.629 54.0486 147.437 56.0881 147.437C58.1276 147.437 60.0841 146.629 61.5297 145.19L145.191 61.5296C146.629 60.084 147.437 58.1275 147.437 56.088C147.437 54.0485 146.629 52.092 145.191 50.6464ZM64.2733 127.064L24.9357 87.7116L86.8149 25.84L126.153 65.1776L64.2733 127.064Z" fill="#0B1F38"/>
<path d="M126.792 113.042H122.208V122.208H113.042V126.792H122.208V135.958H126.792V126.792H135.958V122.208H126.792V113.042Z" fill="#0B1F38"/>
<path d="M124.5 101.583C111.864 101.583 101.583 111.864 101.583 124.5C101.583 137.136 111.864 147.417 124.5 147.417C137.136 147.417 147.417 137.136 147.417 124.5C147.417 111.864 137.136 101.583 124.5 101.583ZM124.5 142.833C114.391 142.833 106.167 134.609 106.167 124.5C106.167 114.391 114.391 106.167 124.5 106.167C134.609 106.167 142.833 114.391 142.833 124.5C142.833 134.609 134.609 142.833 124.5 142.833Z" fill="#0B1F38"/>
</svg>
