<svg xmlns="http://www.w3.org/2000/svg" viewBox="0 0 500 500"><g id="freepik--Shadow--inject-369"><ellipse id="freepik--path--inject-369" cx="250" cy="416.24" rx="193.89" ry="11.32" style="fill:#f5f5f5"></ellipse></g><g id="freepik--Character--inject-369"><path d="M203.41,347.12a2.23,2.23,0,0,1-2.23-2.23V290l-12.93-78.21H173.1a2.23,2.23,0,0,1,0-4.45h17a2.23,2.23,0,0,1,2.2,1.86l13.27,80.25a2.19,2.19,0,0,1,0,.36v55.06A2.23,2.23,0,0,1,203.41,347.12Z" style="fill:#263238"></path><path d="M181.36,209.59H131.31A6.36,6.36,0,0,0,125,217l10.56,63.85a10.74,10.74,0,0,0,10.6,9h50.06a6.36,6.36,0,0,0,6.27-7.4L192,218.58A10.74,10.74,0,0,0,181.36,209.59Z" style="fill:#407BFF"></path><path d="M209.52,288.18c24,0,43.52,25.94,43.52,57.82s-19.53,57.83-43.52,57.83S166,377.89,166,346s19.52-57.82,43.52-57.82m0-2.22c-25.26,0-45.74,26.88-45.74,60s20.48,60.05,45.74,60.05,45.74-26.88,45.74-60.05-20.48-60-45.74-60Z" style="fill:#e0e0e0"></path><path d="M203.41,291.93c10,0,19.5,5.31,26.84,14.94,7.89,10.35,12.23,24.25,12.23,39.13s-4.34,28.79-12.23,39.14c-7.34,9.63-16.87,14.94-26.84,14.94s-19.51-5.31-26.85-14.94c-7.88-10.35-12.23-24.25-12.23-39.14s4.35-28.78,12.23-39.13c7.34-9.63,16.87-14.94,26.85-14.94m0-8.89c-26.49,0-48,28.19-48,63s21.48,63,48,63,48-28.19,48-63-21.47-63-48-63Z" style="fill:#263238"></path><path d="M273.1,383.14c2.69,0,5.71,4.1,5.71,9.58s-3,9.58-5.71,9.58-5.71-4.1-5.71-9.58,3-9.58,5.71-9.58m0-6.67c-6.84,0-12.38,7.28-12.38,16.25S266.26,409,273.1,409s12.37-7.28,12.37-16.25-5.54-16.25-12.37-16.25Z" style="fill:#263238"></path><path d="M197.17,346c0-4.52,2.79-8.18,6.24-8.18s6.23,3.66,6.23,8.18-2.79,8.19-6.23,8.19S197.17,350.52,197.17,346Z" style="fill:#263238"></path><path d="M273.1,317.24H203.41a2.23,2.23,0,1,1,0-4.45H273.1a2.23,2.23,0,0,1,0,4.45Z" style="fill:#263238"></path><path d="M273.1,394.94a2.22,2.22,0,0,1-2.23-2.22V299.31a32.78,32.78,0,0,0-32.74-32.75H199.19a2.22,2.22,0,1,1,0-4.44h38.94a37.23,37.23,0,0,1,37.19,37.19v93.41A2.22,2.22,0,0,1,273.1,394.94Z" style="fill:#263238"></path><path d="M328.27,382.49a3.31,3.31,0,0,1-2.44-1.07l-29-31.11a17.65,17.65,0,0,0-12.88-5.6H273.1a3.34,3.34,0,1,1,0-6.67H284a24.35,24.35,0,0,1,17.76,7.73l29,31.11a3.34,3.34,0,0,1-2.44,5.61Z" style="fill:#263238"></path><path d="M328.38,384.4l-57.46.24c-3.21,0-8.05-2.31-10.74-5.15l-17.44-18.41c-2.7-2.85-2.27-5.19.94-5.2l57.46-.24c3.22,0,8.05,2.31,10.75,5.15l17.43,18.41C332,382.05,331.59,384.39,328.38,384.4Z" style="fill:#407BFF"></path><path d="M328.38,384.4l-57.46.24c-3.21,0-8.05-2.31-10.74-5.15l-17.44-18.41c-2.7-2.85-2.27-5.19.94-5.2l57.46-.24c3.22,0,8.05,2.31,10.75,5.15l17.43,18.41C332,382.05,331.59,384.39,328.38,384.4Z" style="fill:#fff;opacity:0.5"></path><path d="M279.21,315H142.56a5.82,5.82,0,0,1-5.82-5.82v-5.82H279.21A5.83,5.83,0,0,1,285,309.2h0A5.83,5.83,0,0,1,279.21,315Z" style="fill:#407BFF"></path><path d="M169.2,143.06c1.48,8.8-14.4,24.32-6,34.43,7,8.44,20.12-2.25,20.12-2.25s10.91,17.22,30.89,5.34c10.61-6.3-.7-19.74,4.55-30s7.13-22.76-6.61-24.35c-5.06-9.55-29.54-9.47-28.84-.22C170.69,127.06,167.62,133.66,169.2,143.06Z" style="fill:#263238"></path><path d="M213.87,179.45a.47.47,0,0,1-.43-.28.47.47,0,0,1,.25-.62c7.23-3,6.29-8.42,5.2-14.66-.78-4.49-1.59-9.13.4-13.56,3.54-7.88,4.19-14.71,1.77-18.73-1.66-2.76-4.76-4.31-9.2-4.6a.47.47,0,0,1,.06-.93c4.77.31,8.11,2,9.94,5,3.54,5.88.44,14.81-1.72,19.61-1.87,4.16-1.08,8.66-.32,13,1.11,6.35,2.16,12.36-5.76,15.69A.58.58,0,0,1,213.87,179.45Z" style="fill:#263238"></path><path d="M340.8,373.25c-9.29,4.09-18,1.59-22.93,3.72-4.19,1.82-4.9,2.93-8.41,4-2.92.93-3.75-1.89-3.94-5.39-.09-1.76.24-5.58-.81-8.19l10.76-8.85c3.76,1.92,18.3,10.37,23.59,9.34C344.12,366.91,344.26,371.72,340.8,373.25Z" style="fill:#407BFF"></path><path d="M254.15,303.38C257.77,334.86,304,367,304,367c4.36-1.41,11.45-5.33,12.52-7.67C301.8,340.93,295,326.55,285,293.77a19.28,19.28,0,0,0-13.9-13.11c-12-2.89-25.2-7.88-42.18-11.11-21-1.67-42.66,4.13-42.66,4.13s-12.86,29.7,7.88,29.7h60" style="fill:#407BFF"></path><g style="opacity:0.4"><path d="M254.15,303.38C257.77,334.86,304,367,304,367c4.36-1.41,11.45-5.33,12.52-7.67C301.8,340.93,295,326.55,285,293.77a19.28,19.28,0,0,0-13.9-13.11c-12-2.89-25.2-7.88-42.18-11.11-21-1.67-42.66,4.13-42.66,4.13s-12.86,29.7,7.88,29.7h60"></path></g><path d="M310.65,350c1.56,1.73,4.32,4.71,6.65,6.8a2,2,0,0,1,.72,2.46c-3.62,5.12-11.7,9.24-14.32,10.48a1.77,1.77,0,0,1-1.84-.56l-6.5-6.12c-.89-.84-1.14-2.07-.52-2.57l13.62-11.11C309,349,309.94,349.24,310.65,350Z" style="fill:#263238"></path><path d="M318.29,387.73c-9.81,2.65-18.07-1.14-23.23.22-4.42,1.17-5.29,2.16-8.92,2.71-3,.47-3.43-2.44-3.08-5.93.17-1.75,1.07-5.47.43-8.21l12-7.13c3.42,2.46,16.52,13,21.92,12.79C322.52,382,321.94,386.75,318.29,387.73Z" style="fill:#407BFF"></path><path d="M236.14,303.38c3.62,31.48,46.7,72.61,46.7,72.61,4.52-.73,12.13-3.54,13.54-5.69C284.61,349.9,277,326.55,267,293.77a19.3,19.3,0,0,0-13.9-13.11c-12-2.89-25.2-7.88-42.19-11.11-21-1.67-42.66,4.13-42.66,4.13s-12.85,29.7,7.89,29.7h60" style="fill:#407BFF"></path><g style="opacity:0.30000000000000004"><path d="M236.14,303.38c3.62,31.48,46.7,72.61,46.7,72.61,4.52-.73,12.13-3.54,13.54-5.69C284.61,349.9,277,326.55,267,293.77a19.3,19.3,0,0,0-13.9-13.11c-12-2.89-25.2-7.88-42.19-11.11-21-1.67-42.66,4.13-42.66,4.13s-12.85,29.7,7.89,29.7h60"></path></g><path d="M292,360.22c1.29,1.95,3.57,5.31,5.55,7.72a2.05,2.05,0,0,1,.34,2.55c-4.35,4.52-12.95,7.37-15.73,8.2a1.78,1.78,0,0,1-1.74-.84l-5.5-7c-.75-1-.82-2.21-.13-2.61l15.14-8.93C290.5,358.94,291.4,359.34,292,360.22Z" style="fill:#263238"></path><path d="M219.6,197.49l.17.89.25,1.15c.18.78.38,1.58.59,2.39.45,1.6.92,3.23,1.47,4.84a84.51,84.51,0,0,0,3.9,9.49c.74,1.55,1.55,3.07,2.4,4.56s1.74,3,2.67,4.44a90.49,90.49,0,0,0,6.2,8.34l-5-2.47a15.21,15.21,0,0,0,3.37.1,41,41,0,0,0,4.31-.52c3-.51,6.13-1.2,9.26-2s6.32-1.71,9.51-2.64l9.55-2.89.1,0a4.35,4.35,0,0,1,3.68,7.77c-3,2-5.94,3.74-9,5.44s-6.22,3.24-9.48,4.69c-1.62.73-3.28,1.4-5,2.05s-3.42,1.28-5.23,1.8a54.21,54.21,0,0,1-5.68,1.4,28.5,28.5,0,0,1-6.78.5,6.94,6.94,0,0,1-4.59-2l-.45-.45a86.34,86.34,0,0,1-8.3-9.5,82.61,82.61,0,0,1-6.82-10.68,80.12,80.12,0,0,1-5.15-11.63c-.7-2-1.35-4.06-1.87-6.16-.27-1.06-.52-2.11-.74-3.21l-.3-1.67-.13-.88-.14-1.08a8.68,8.68,0,0,1,17.12-2.78Z" style="fill:#ce7a63"></path><path d="M219.6,197.49l.17.89.25,1.15c.18.78.38,1.58.59,2.39.45,1.6.92,3.23,1.47,4.84a84.51,84.51,0,0,0,3.9,9.49c.74,1.55,1.55,3.07,2.4,4.56s1.74,3,2.67,4.44a90.49,90.49,0,0,0,6.2,8.34l-5-2.47a15.21,15.21,0,0,0,3.37.1,41,41,0,0,0,4.31-.52c3-.51,6.13-1.2,9.26-2s6.32-1.71,9.51-2.64l9.55-2.89.1,0a4.35,4.35,0,0,1,3.68,7.77c-3,2-5.94,3.74-9,5.44s-6.22,3.24-9.48,4.69c-1.62.73-3.28,1.4-5,2.05s-3.42,1.28-5.23,1.8a54.21,54.21,0,0,1-5.68,1.4,28.5,28.5,0,0,1-6.78.5,6.94,6.94,0,0,1-4.59-2l-.45-.45a86.34,86.34,0,0,1-8.3-9.5,82.61,82.61,0,0,1-6.82-10.68,80.12,80.12,0,0,1-5.15-11.63c-.7-2-1.35-4.06-1.87-6.16-.27-1.06-.52-2.11-.74-3.21l-.3-1.67-.13-.88-.14-1.08a8.68,8.68,0,0,1,17.12-2.78Z" style="opacity:0.1"></path><path d="M207.57,183.77c11.69,1.94,16.56,10.94,20.39,30.84-4.76,6.2-22,9.61-22,9.61S197.56,194.53,207.57,183.77Z" style="fill:#407BFF"></path><path d="M207.57,183.77c11.69,1.94,16.56,10.94,20.39,30.84-4.76,6.2-22,9.61-22,9.61S197.56,194.53,207.57,183.77Z" style="fill:#fff;opacity:0.5"></path><path d="M223.68,204.91c.55,5.62,1.55,9.85,1.69,23.34.34,11.41.32,22.65-.05,41.41l-57.25,3.92c.05-16.21-3.09-34.46-15.85-70-3-8.25,1.8-16.7,10.23-18.14,2.25-.39,4.64-.74,7.1-1,9.57-1.12,17.42-2,26-1.78,2.85.06,5.8.22,8.63.42C214.38,183.72,222.67,194.84,223.68,204.91Z" style="fill:#407BFF"></path><path d="M223.68,204.91c.55,5.62,1.55,9.85,1.69,23.34.34,11.41.32,22.65-.05,41.41l-57.25,3.92c.05-16.21-3.09-34.46-15.85-70-3-8.25,1.8-16.7,10.23-18.14,2.25-.39,4.64-.74,7.1-1,9.57-1.12,17.42-2,26-1.78,2.85.06,5.8.22,8.63.42C214.38,183.72,222.67,194.84,223.68,204.91Z" style="fill:#fff;opacity:0.6000000000000001"></path><path d="M178.43,156c.28,7.92-1,22.74-5.58,28.17,0,0,7.15-1.58,23.13,6.86,4-6.68.57-8.48.57-8.48-8.79-1.44-8.2-5.35-5.83-10.9Z" style="fill:#ce7a63"></path><path d="M193.12,189.62c-4.86,1.74-6.13,8.16-6.45,12a2.07,2.07,0,0,1-3.07,1.65c-5.73-3.23-14.44-10.73-15.75-18.88A55.6,55.6,0,0,0,172.5,181S189.67,186.65,193.12,189.62Z" style="fill:#fff"></path><path d="M197.26,188.62s3.65,2.76,6.52,9.56a1,1,0,0,0,1.81-.24c1.76-13.41-6.67-15.71-6.67-15.71a7.11,7.11,0,0,0-5.06-.38A5.94,5.94,0,0,1,197.26,188.62Z" style="fill:#fff"></path><path d="M183.78,164l7,8.89a21.6,21.6,0,0,0-1.31,3.85c-3-1.15-6.63-5.53-6.45-8.85A11.09,11.09,0,0,1,183.78,164Z" style="opacity:0.2"></path><path d="M181.76,139.72c-3.67,11.49-5.46,16.26-2.2,24.48,4.89,12.35,19.34,15,26.26,5,6.22-9,11.17-26.28,2.27-35.52S185.42,128.23,181.76,139.72Z" style="fill:#ce7a63"></path><path d="M185,128.56c-1.42,13.72,24.85,4.8,29.52,13C216.71,134.15,200.94,120.45,185,128.56Z" style="fill:#263238"></path><path d="M179.27,148.6c9.3,0,15.79-7.09,13.34-14.37-1.9-5.62-9-6.39-13.64-3.27S179.27,148.6,179.27,148.6Z" style="fill:#263238;opacity:0.7000000000000001"></path><path d="M197.14,151.21c-.31,1-.06,1.94.54,2.17s1.33-.36,1.63-1.33.06-1.94-.54-2.17S197.44,150.24,197.14,151.21Z" style="fill:#263238"></path><path d="M209,155.39c-.3,1-.06,1.94.54,2.17s1.33-.36,1.63-1.33.06-1.94-.54-2.17S209.26,154.42,209,155.39Z" style="fill:#263238"></path><path d="M210.31,154l2.42.19S211,155.57,210.31,154Z" style="fill:#263238"></path><path d="M204.73,156.13a29.74,29.74,0,0,0,1.35,7.45c-1.58.72-3.47-.63-3.47-.63Z" style="fill:#ba4d3c"></path><path d="M197.23,165.84a9.65,9.65,0,0,0,1.47.78.26.26,0,0,0,.36-.16.32.32,0,0,0-.17-.4,8.41,8.41,0,0,1-4.82-5.46.29.29,0,0,0-.34-.24.29.29,0,0,0-.21.35A8.83,8.83,0,0,0,197.23,165.84Z" style="fill:#263238"></path><path d="M196.05,151.13H196l-16-5.66a.23.23,0,0,1-.15-.29.24.24,0,0,1,.3-.15l16,5.66a.24.24,0,0,1,.15.3A.25.25,0,0,1,196.05,151.13Z" style="fill:#fff"></path><path d="M198.72,158.37h-.21a3.84,3.84,0,0,1-3.12-1.62,4.81,4.81,0,0,1-.35-4.31c1.05-3.07,4.28-5.47,7.2-5.34a3.84,3.84,0,0,1,3.12,1.62,4.82,4.82,0,0,1,.35,4.3A8,8,0,0,1,198.72,158.37Zm3.3-10.81a7.55,7.55,0,0,0-6.54,5,4.35,4.35,0,0,0,.29,3.88,3.38,3.38,0,0,0,2.76,1.42c2.72.11,5.75-2.14,6.74-5l.22.08-.22-.08A4.37,4.37,0,0,0,205,149a3.41,3.41,0,0,0-2.75-1.42Z" style="fill:#fff"></path><path d="M210.35,162.68h-.22a3.81,3.81,0,0,1-3.12-1.62,4.79,4.79,0,0,1-.35-4.3c1.05-3.07,4.28-5.49,7.2-5.35A3.81,3.81,0,0,1,217,153a4.84,4.84,0,0,1,.35,4.31l-.22-.08.22.08C216.3,160.32,213.2,162.68,210.35,162.68Zm3.29-10.82a7.55,7.55,0,0,0-6.54,5,4.37,4.37,0,0,0,.29,3.88,3.38,3.38,0,0,0,2.76,1.42c2.73.11,5.75-2.14,6.74-5a4.37,4.37,0,0,0-.29-3.88,3.41,3.41,0,0,0-2.76-1.42Z" style="fill:#fff"></path><path d="M207.83,155.21a.24.24,0,0,1-.23-.18c-.2-.79-1.92-.84-2.56-.79a.22.22,0,0,1-.25-.21.23.23,0,0,1,.21-.25c.28,0,2.71-.18,3.06,1.14a.24.24,0,0,1-.17.28Z" style="fill:#fff"></path><path d="M174.12,148.63a9.7,9.7,0,0,0,3.29,6.62c2.52,2.1,5.1-.15,5.5-3.49.36-3-.51-7.72-3.57-8.5S173.88,145.38,174.12,148.63Z" style="fill:#ce7a63"></path><path d="M198,144.42a.52.52,0,0,0,.44,0,4.35,4.35,0,0,1,4.1.31.55.55,0,0,0,.79-.13.65.65,0,0,0-.16-.85,5.37,5.37,0,0,0-5.17-.46.59.59,0,0,0-.3.78A.65.65,0,0,0,198,144.42Z" style="fill:#263238"></path><path d="M214.44,151.41a.57.57,0,0,0,.42.08.58.58,0,0,0,.43-.71,6.17,6.17,0,0,0-3.28-4.41.53.53,0,0,0-.72.33.63.63,0,0,0,.34.79,5,5,0,0,1,2.55,3.52A.71.71,0,0,0,214.44,151.41Z" style="fill:#263238"></path><path d="M198.49,149.83l2.41.19S199.2,151.39,198.49,149.83Z" style="fill:#263238"></path><path d="M282,218.42l-3.55-1.18a4.36,4.36,0,0,0-3.94.6l-5.32,3.87a8.12,8.12,0,0,0-3.35,6.65l0,1.63c5.75,2.37,13.71.7,13.71.7l2.33-.23a3.62,3.62,0,0,0,3.36-3.9L284.9,222A4.18,4.18,0,0,0,282,218.42Z" style="fill:#ce7a63"></path><path d="M282,218.42l-3.55-1.18a4.36,4.36,0,0,0-3.94.6l-5.32,3.87a8.12,8.12,0,0,0-3.35,6.65l0,1.63c5.75,2.37,13.71.7,13.71.7l2.33-.23a3.62,3.62,0,0,0,3.36-3.9L284.9,222A4.18,4.18,0,0,0,282,218.42Z" style="opacity:0.1"></path><path d="M229,230.85l-4.08-1.29a5,5,0,0,0-4.5.76l-6,4.52a9.34,9.34,0,0,0-3.71,7.67l0,1.86c6.63,2.62,15.71.56,15.71.56l2.65-.3a4.14,4.14,0,0,0,3.78-4.52l-.52-5.27A4.78,4.78,0,0,0,229,230.85Z" style="fill:#ce7a63"></path><path d="M167.59,210.75l.56,2.34.63,2.48c.44,1.66.88,3.33,1.36,5,.94,3.32,2,6.6,3.1,9.85l.85,2.43.9,2.39c.61,1.59,1.24,3.18,1.9,4.73,1.33,3.11,2.8,6.1,4.37,9l-5.51-3.61a5.59,5.59,0,0,0,1.3.13,6.54,6.54,0,0,0,1,0,10.64,10.64,0,0,0,1.09-.07,40.18,40.18,0,0,0,4.85-.75c1.69-.36,3.42-.76,5.17-1.2s3.5-1,5.26-1.46c3.54-1,7.09-2.15,10.65-3.31l10.68-3.54.08,0a4.34,4.34,0,0,1,3.76,7.73c-3.31,2.2-6.63,4.15-10.06,6s-6.91,3.66-10.5,5.33a106.91,106.91,0,0,1-11.26,4.49,58.21,58.21,0,0,1-6.3,1.68c-.55.12-1.14.22-1.74.31s-1.22.16-1.87.22a22.38,22.38,0,0,1-4.39,0,7.12,7.12,0,0,1-5.19-3.12l-.32-.49a98.53,98.53,0,0,1-6.05-10.24,112.43,112.43,0,0,1-4.8-10.65c-1.43-3.59-2.67-7.25-3.79-10.93-.53-1.85-1.07-3.7-1.52-5.59-.23-.93-.46-1.88-.67-2.83s-.39-1.87-.6-3a8.69,8.69,0,0,1,17-3.66Z" style="fill:#ce7a63"></path><path d="M157.91,187c-10.25,6-11.61,16.1-8.14,36.07,6.65,4.11,24,1.2,24,1.2S171.09,193.54,157.91,187Z" style="fill:#407BFF"></path><path d="M157.91,187c-10.25,6-11.61,16.1-8.14,36.07,6.65,4.11,24,1.2,24,1.2S171.09,193.54,157.91,187Z" style="fill:#fff;opacity:0.6000000000000001"></path><path d="M136.74,347.12a2.22,2.22,0,0,1-2.22-2.23V290l-12.94-78.21H106.43a2.23,2.23,0,0,1,0-4.45h17a2.22,2.22,0,0,1,2.19,1.86l13.27,80.25a2.19,2.19,0,0,1,0,.36v55.06A2.22,2.22,0,0,1,136.74,347.12Z" style="fill:#263238"></path><path d="M136.74,291.93c10,0,19.51,5.31,26.84,14.94,7.89,10.35,12.23,24.25,12.23,39.13s-4.34,28.79-12.23,39.14c-7.33,9.63-16.87,14.94-26.84,14.94s-19.51-5.31-26.84-14.94C102,374.79,97.67,360.89,97.67,346s4.34-28.78,12.23-39.13c7.33-9.63,16.87-14.94,26.84-14.94m0-8.89c-26.49,0-48,28.19-48,63s21.47,63,48,63,48-28.19,48-63-21.47-63-48-63Z" style="fill:#263238"></path><path d="M206.43,383.14c2.7,0,5.71,4.1,5.71,9.58s-3,9.58-5.71,9.58-5.71-4.1-5.71-9.58,3-9.58,5.71-9.58m0-6.67c-6.83,0-12.38,7.28-12.38,16.25S199.6,409,206.43,409s12.38-7.28,12.38-16.25-5.54-16.25-12.38-16.25Z" style="fill:#263238"></path><ellipse cx="136.74" cy="346" rx="6.23" ry="8.18" style="fill:#263238"></ellipse><path d="M131.74,288.18c24,0,43.52,25.94,43.52,57.82s-19.52,57.83-43.52,57.83S88.22,377.89,88.22,346s19.52-57.82,43.52-57.82m0-2.22C106.48,286,86,312.84,86,346s20.48,60.05,45.74,60.05,45.74-26.88,45.74-60.05S157,286,131.74,286Z" style="fill:#e0e0e0"></path><path d="M206.43,317.24H136.74a2.23,2.23,0,0,1,0-4.45h69.69a2.23,2.23,0,0,1,0,4.45Z" style="fill:#263238"></path><path d="M206.43,394.94a2.21,2.21,0,0,1-2.22-2.22V299.31a32.79,32.79,0,0,0-32.75-32.75H132.52a2.22,2.22,0,0,1,0-4.44h38.94a37.23,37.23,0,0,1,37.19,37.19v93.41A2.21,2.21,0,0,1,206.43,394.94Z" style="fill:#263238"></path><path d="M261.6,382.49a3.32,3.32,0,0,1-2.44-1.07l-29-31.11a17.68,17.68,0,0,0-12.88-5.6H206.43a3.34,3.34,0,0,1,0-6.67h10.88a24.37,24.37,0,0,1,17.76,7.73l29,31.11a3.34,3.34,0,0,1-2.44,5.61Z" style="fill:#263238"></path></g></svg>